<svg width="19" height="20" viewBox="0 0 19 20" fill="none" xmlns="http://www.w3.org/2000/svg">
<path d="M12.6398 17.3581C11.6699 17.7632 10.6141 17.9965 9.49693 17.9965C7.54492 17.9965 5.76479 17.2967 4.36523 16.155C4.36523 16.155 4.47573 16.2286 4.54939 16.29C6.09626 12.9262 10.8719 11.2565 10.8719 11.2565C10.8842 11.2565 10.9088 11.2442 10.921 11.2442C12.0505 14.1907 12.517 16.646 12.6398 17.3581ZM10.3686 9.90608C10.2704 9.94291 10.1599 9.96746 10.0494 10.0043C10.0494 10.0043 5.7034 11.4038 3.50586 15.3201C2.22907 13.896 1.44336 12.0054 1.44336 9.94291C1.44336 9.85697 1.44336 9.77103 1.45564 9.68509C1.59068 9.68509 5.56836 9.78331 9.71791 8.54335C9.95117 8.99759 10.1722 9.45183 10.3686 9.90608ZM9.05497 7.3034C5.18778 8.32237 1.82394 8.28554 1.61523 8.28554C2.14314 5.79335 3.81278 3.71858 6.05943 2.66277C6.16992 2.81009 7.65541 4.82349 9.05497 7.3034ZM17.4523 11.2197C17.084 13.4663 15.8072 15.4061 14.0025 16.6215C13.9166 16.1427 13.4869 13.7733 12.4311 10.8637C15.0338 10.4585 17.2804 11.1706 17.4523 11.2197ZM7.56948 2.12259C7.5572 2.12259 7.54492 2.13487 7.54492 2.13487C7.5572 2.12259 7.5572 2.12259 7.56948 2.12259ZM14.8128 3.90273C14.7882 3.93956 13.6465 5.68286 10.6141 6.81233C9.23912 4.28331 7.7168 2.28219 7.59403 2.12259C8.20787 1.97527 8.84626 1.88933 9.49693 1.88933C11.5349 1.88933 13.4009 2.65049 14.8128 3.90273ZM17.5505 9.85697C17.4523 9.84469 14.7146 9.24313 11.94 9.59916C11.8786 9.46411 11.8295 9.31679 11.7681 9.18174C11.5963 8.78889 11.4121 8.39603 11.228 8.01545C14.4076 6.71411 15.6967 4.84804 15.7213 4.82349C16.8507 6.19849 17.5259 7.95407 17.5505 9.85697ZM18.9255 9.94291C18.9255 4.73755 14.7023 0.514334 9.49693 0.514334C4.29157 0.514334 0.0683594 4.73755 0.0683594 9.94291C0.0683594 15.1483 4.29157 19.3715 9.49693 19.3715C14.7023 19.3715 18.9255 15.1483 18.9255 9.94291Z" fill="#151439" fill-opacity="0.4"/>
</svg>
