<svg width="19" height="20" viewBox="0 0 19 20" fill="none" xmlns="http://www.w3.org/2000/svg">
<path d="M15.3898 0.514334H3.60407C1.65206 0.514334 0.0683594 2.09804 0.0683594 4.05005V15.8358C0.0683594 17.7878 1.65206 19.3715 3.60407 19.3715H10.1353V12.0668H7.67997V9.21858H10.1353V7.11924C10.1353 4.68844 11.6331 3.36255 13.8061 3.36255C14.8373 3.36255 15.7335 3.43621 15.9914 3.47304V6.01433L14.4936 6.02661C13.3027 6.02661 13.0818 6.57907 13.0818 7.40161V9.21858H15.8931L15.5248 12.0668H13.0818V19.3715H15.3898C17.3418 19.3715 18.9255 17.7878 18.9255 15.8358V4.05005C18.9255 2.09804 17.3418 0.514334 15.3898 0.514334Z" fill="#151439" fill-opacity="0.4"/>
</svg>
