<svg width="21" height="16" viewBox="0 0 21 16" fill="none" xmlns="http://www.w3.org/2000/svg">
<path d="M20.1726 1.95183C19.4605 2.25875 18.6871 2.47974 17.8891 2.56567C18.7116 2.0746 19.3378 1.30116 19.6324 0.380406C18.8712 0.834646 18.0119 1.16612 17.1157 1.33799C16.3913 0.564557 15.3601 0.0857627 14.2183 0.0857627C12.0208 0.0857627 10.2529 1.8659 10.2529 4.05116C10.2529 4.35808 10.2898 4.665 10.3511 4.95965C7.06097 4.78777 4.12681 3.21634 2.1748 0.810093C1.83105 1.39938 1.63463 2.0746 1.63463 2.81121C1.63463 4.18621 2.3344 5.40161 3.40248 6.11366C2.75181 6.08911 2.13797 5.90496 1.61007 5.61032C1.61007 5.62259 1.61007 5.64715 1.61007 5.65942C1.61007 7.58688 2.9728 9.18286 4.78976 9.55116C4.45829 9.6371 4.10226 9.68621 3.74623 9.68621C3.48842 9.68621 3.24289 9.66166 2.99735 9.62483C3.5007 11.1963 4.96164 12.338 6.70494 12.3748C5.34222 13.4429 3.63574 14.069 1.78195 14.069C1.45047 14.069 1.14355 14.0567 0.824358 14.0199C2.57994 15.1494 4.66699 15.8 6.91364 15.8C14.2061 15.8 18.196 9.75987 18.196 4.51768C18.196 4.34581 18.196 4.17393 18.1837 4.00206C18.9572 3.43733 19.6324 2.73755 20.1726 1.95183Z" fill="#151439" fill-opacity="0.4"/>
</svg>
